<?xml version="1.0" encoding="UTF-8"?>
<svg version="1.1" xmlns="http://www.w3.org/2000/svg" width="1024" height="1024">
<path d="M0 0 C337.92 0 675.84 0 1024 0 C1024 337.92 1024 675.84 1024 1024 C686.08 1024 348.16 1024 0 1024 C0 686.08 0 348.16 0 0 Z " fill="#021A45" transform="translate(0,0)"/>
<path d="M0 0 C0.99 0 1.98 0 3 0 C3 47.19 3 94.38 3 143 C14.55 143 26.1 143 38 143 C38 158.51 38 174.02 38 190 C34.31175049 189.96745117 30.62350098 189.93490234 26.82348633 189.90136719 C14.60581981 189.80235444 2.38879408 189.76914865 -9.82921886 189.76940536 C-17.23363976 189.76796867 -24.63671834 189.74442236 -32.04077148 189.66748047 C-38.49981093 189.6004166 -44.95740308 189.57620737 -51.41676313 189.60190511 C-54.83272133 189.61403929 -58.24569467 189.60577396 -61.66121483 189.5460434 C-77.97989519 188.67758345 -77.97989519 188.67758345 -92.28365803 195.15204239 C-94.74034973 197.61837363 -96.83692643 200.27099674 -99 203 C-100.88894599 204.73876312 -102.85018105 206.28874601 -104.875 207.875 C-107.99827895 210.37818269 -111.06452116 212.91067954 -114.0625 215.5625 C-117 218 -117 218 -119 218 C-113.20082402 224.90771258 -106.87166466 231.25740581 -100.484375 237.61328125 C-99.33192965 238.76380391 -98.17971436 239.91455706 -97.02770996 241.06552124 C-94.56015074 243.52993619 -92.09105079 245.992793 -89.62072754 248.45443726 C-85.70889294 252.35267006 -81.80094635 256.25478524 -77.89355469 260.1574707 C-69.59866978 268.44128813 -61.29955895 276.7208659 -53 285 C-44.03781472 293.94012973 -35.07637258 302.88099687 -26.11981583 311.82676601 C-22.24112048 315.70050061 -18.36000528 319.57178884 -14.47697449 323.44117737 C-12.05608614 325.85456918 -9.63730482 328.27006446 -7.21907043 330.68611526 C-6.10378072 331.79954428 -4.98763264 332.91211432 -3.87052917 334.0237236 C11.27019428 349.09236464 11.27019428 349.09236464 15.70703125 356.24609375 C19.76529439 362.04978831 24.05508357 366.973071 31.29388428 368.47637939 C44.38585035 370.24105071 57.83997322 369.59234394 71 369 C71.33 368.01 71.66 367.02 72 366 C74.04876306 364.24730097 76.0973174 362.61508175 78.25 361 C83.18616155 357.21539799 88.02559338 353.35874855 92.75 349.3125 C97.23789245 345.47646521 101.79359766 341.74732831 106.421875 338.08203125 C109.40967691 335.66915486 112.33040735 333.18186277 115.25 330.6875 C120.2318467 326.43857931 125.31876865 322.35543185 130.48730469 318.33666992 C135.96501892 314.06293983 141.31382193 309.64058239 146.6628418 305.20751953 C151.24270887 301.42127375 155.87316794 297.71209571 160.5625 294.0625 C164.85995671 290.71730703 169.03802541 287.28647732 173.1015625 283.66015625 C177.99436513 279.38147082 183.16601704 275.4258315 188.29296875 271.43359375 C194.12036908 266.890086 199.88485015 262.30452109 205.5 257.5 C210.1394871 253.53607604 214.84189938 249.66472562 219.625 245.875 C220.21732422 245.40126953 220.80964844 244.92753906 221.41992188 244.43945312 C223.94068519 242.45738952 225.93200386 241.02266538 229 240 C229 239.34 229 238.68 229 238 C230.48193359 236.7097168 230.48193359 236.7097168 232.5234375 235.26171875 C236.67895034 232.24691702 240.65855074 229.07008583 244.625 225.8125 C250.26875145 221.20062848 255.95584824 216.65414847 261.70288086 212.171875 C265.5471961 209.16484367 269.34076256 206.10154944 273.11621094 203.00854492 C292.66659169 187 292.66659169 187 298 187 C298 261.25 298 335.5 298 412 C230.17573604 419.90226627 230.17573604 419.90226627 205.05078125 421.49658203 C204.28435004 421.54573066 203.51791883 421.59487928 202.72826242 421.64551726 C191.21407072 422.37981488 179.69612483 423.01164138 168.1719842 423.56735146 C165.69526203 423.68712463 163.21871399 423.81014545 160.74215317 423.9332037 C78.52921713 427.9523281 9.1688461 424.40916277 -54.17929864 367.36640048 C-70.43241035 352.60788578 -85.42800841 336.71009975 -100.00263828 320.30960804 C-101.50463413 318.61978637 -103.00953455 316.93258856 -104.51486635 315.24573851 C-128.24769084 288.61906658 -150.76856527 261.13450814 -171.83874512 232.3397522 C-172.63541793 231.25707421 -172.63541793 231.25707421 -173.44818515 230.15252393 C-177 225.23983793 -177 225.23983793 -177 223 C-177.8353125 222.6596875 -177.8353125 222.6596875 -178.6875 222.3125 C-181.67204749 220.61856764 -183.62654045 218.48385302 -186 216 C-187.12402636 214.89484219 -188.24909097 213.79073972 -189.375 212.6875 C-199.16700013 202.87407317 -199.16700013 202.87407317 -202 197 C-199.44169924 194.4124795 -196.87762584 191.83075324 -194.3125 189.25 C-193.59126953 188.52039063 -192.87003906 187.79078125 -192.12695312 187.0390625 C-184.80127616 179.67993495 -184.80127616 179.67993495 -181 177 C-180.34 177 -179.68 177 -179 177 C-178.73356689 176.40832031 -178.46713379 175.81664062 -178.19262695 175.20703125 C-176.97561608 172.95487602 -175.72815965 171.48402403 -173.91796875 169.6875 C-173.01401367 168.78644531 -173.01401367 168.78644531 -172.09179688 167.8671875 C-171.46337891 167.25101563 -170.83496094 166.63484375 -170.1875 166 C-169.57068359 165.38382813 -168.95386719 164.76765625 -168.31835938 164.1328125 C-165.01814896 160.86416627 -161.6412636 157.88893641 -158 155 C-156.32147265 153.34527903 -154.65657552 151.67669708 -153 150 C-152.12754639 149.12230957 -151.25509277 148.24461914 -150.35620117 147.34033203 C-149.42783447 146.40560059 -148.49946777 145.47086914 -147.54296875 144.5078125 C-145.9651599 142.92261789 -144.38686367 141.33791034 -142.80834961 139.75341797 C-141.73224621 138.67228983 -140.65704256 137.59026533 -139.58276367 136.50732422 C-134.19416163 131.07659146 -128.80008753 125.728485 -122.9777832 120.75732422 C-118.79406999 117.03995998 -114.92593274 112.98541657 -111 109 C-105.77844631 103.69933186 -100.57660569 98.46919656 -94.88671875 93.66796875 C-92.48502046 91.54472823 -90.25288165 89.28021001 -88 87 C-81 80 -74 73 -67 66 C-66.16235107 65.15211914 -65.32470215 64.30423828 -64.46166992 63.43066406 C-62.26974032 61.26634281 -60.02732526 59.2273378 -57.70703125 57.203125 C-50.06519527 50.36442545 -42.91476905 43.02054611 -35.6875 35.75 C-34.23395991 34.29143149 -32.78018545 32.83309651 -31.32617188 31.375 C-28.66481158 28.70553853 -26.00478405 26.03476535 -23.34643555 23.36230469 C-21.2901206 21.29514569 -19.2316956 19.23017109 -17.16918945 17.16918945 C-15.82567082 15.82567082 -14.48702129 14.47723992 -13.15625 13.12109375 C-9.9199429 9.83135705 -6.61823288 6.87330259 -3 4 C-2.67 3.34 -2.34 2.68 -2 2 C-1.34 2 -0.68 2 0 2 C0 1.34 0 0.68 0 0 Z " fill="#0079DF" transform="translate(436,384)"/>
<path d="M0 0 C32.34 0 64.68 0 98 0 C98.19841489 38.08209232 98.36458915 76.16369715 98.45958797 114.24615845 C98.47084431 118.74223155 98.48249321 123.23830354 98.49438477 127.734375 C98.49674556 128.62946095 98.49910635 129.5245469 98.50153869 130.44675666 C98.54069944 144.9394751 98.61165968 159.43187221 98.69437516 173.92440003 C98.7785427 188.7953818 98.82852972 203.6661953 98.84679645 218.53740549 C98.85914511 227.71376644 98.8981429 236.88921916 98.9712482 246.06530052 C99.01882717 252.35794333 99.0332001 258.65011673 99.0215124 264.94292635 C99.01574784 268.57381807 99.0245722 272.20312318 99.07284927 275.8337326 C99.12484305 279.77267492 99.10688038 283.70955585 99.08229065 287.64880371 C99.10850622 288.79278547 99.1347218 289.93676723 99.16173178 291.1154151 C99.08433637 295.69772633 98.98280222 298.76640245 96.06680858 302.42651081 C93.79948795 304.47065127 91.5002332 306.25213878 89 308 C87.64196038 309.05754527 86.28716473 310.11928713 84.9375 311.1875 C84.20273437 311.74953125 83.46796875 312.3115625 82.7109375 312.890625 C79.11774992 315.68647701 75.59149068 318.56128477 72.0625 321.4375 C64.46789677 327.62236319 56.85022274 333.77261066 49.13647461 339.80859375 C41.29213626 345.94924836 33.54539147 352.20344373 25.83056641 358.50585938 C24.1640486 359.86610063 22.49479933 361.22287918 20.82421875 362.578125 C16.02509405 366.48114757 11.33445689 370.42183838 6.8515625 374.6875 C5 376 5 376 0 377 C0 252.59 0 128.18 0 0 Z " fill="#0079DF" transform="translate(636,226)"/>
<path d="M0 0 C30.69 0 61.38 0 93 0 C93.19835655 39.64486322 93.36455326 79.28925903 93.45958797 118.93447635 C93.47084452 123.61338225 93.4824934 128.29228709 93.49438477 132.97119141 C93.49674556 133.90268935 93.49910635 134.8341873 93.50153869 135.79391246 C93.54071622 150.88289549 93.61168572 165.97157038 93.69437516 181.06037052 C93.77849597 196.53929013 93.82851983 212.0180482 93.84679645 227.49718702 C93.85915478 237.05126391 93.89820529 246.60446991 93.9712482 256.15827875 C94.01876946 262.70693843 94.03321316 269.25514695 94.0215124 275.8039666 C94.01573891 279.58445492 94.02467492 283.36342019 94.07284927 287.14363861 C94.12468871 291.24134114 94.10692532 295.33579133 94.08229065 299.43374634 C94.10850622 300.63024516 94.1347218 301.82674398 94.16173178 303.05950034 C94.03301858 310.95180478 94.03301858 310.95180478 91.02945507 313.99949527 C88.61985683 315.59789085 88.61985683 315.59789085 86.22366947 316.83631361 C84.01791749 317.99062346 82.73108227 319.25128739 81 321 C80.34 321 79.68 321 79 321 C79 321.66 79 322.32 79 323 C76.93146756 324.7665569 74.85370928 326.42325178 72.6875 328.0625 C71.39253103 329.0602925 70.09826782 330.0590016 68.8046875 331.05859375 C68.15854492 331.55601074 67.51240234 332.05342773 66.84667969 332.56591797 C62.48910818 335.9498914 58.25652167 339.49056694 54 343 C50.33859058 346.00648125 46.67045358 349.00457236 43 352 C42.0615625 352.7734375 41.123125 353.546875 40.15625 354.34375 C39.2590625 355.0759375 38.361875 355.808125 37.4375 356.5625 C36.63183594 357.22378906 35.82617188 357.88507813 34.99609375 358.56640625 C33 360 33 360 31 360 C31 360.66 31 361.32 31 362 C29.3203125 363.5078125 29.3203125 363.5078125 27.125 365.125 C26.04605469 365.93324219 26.04605469 365.93324219 24.9453125 366.7578125 C23 368 23 368 21 368 C21 368.66 21 369.32 21 370 C18.828563 371.87397988 16.65021599 373.63539824 14.375 375.375 C13.75753906 375.85710937 13.14007812 376.33921875 12.50390625 376.8359375 C1.96605384 385 1.96605384 385 0 385 C0 257.95 0 130.9 0 0 Z " fill="#0079E0" transform="translate(508,322)"/>
<path d="M0 0 C4.94059697 1.97623879 7.56136341 4.15038353 11.16723633 7.82666016 C11.76293427 8.42192001 12.3586322 9.01717987 12.97238159 9.63047791 C14.93279624 11.59297677 16.88237998 13.56587523 18.83203125 15.5390625 C20.1918642 16.90449268 21.55236253 18.2692605 22.91349792 19.63339233 C26.48920905 23.22054209 30.05581825 26.81661044 33.62060547 30.41461182 C37.26179731 34.08652545 40.91152683 37.74993111 44.56054688 41.4140625 C51.71541209 48.60107458 58.86069038 55.79753769 66 63 C64.26798575 66.70442254 62.17198443 69.04517135 59.23828125 71.921875 C58.76939987 72.38555481 58.30051849 72.84923462 57.81742859 73.32696533 C56.32048402 74.80617025 54.81704251 76.27852701 53.3125 77.75 C51.82662216 79.20797061 50.34234309 80.66747816 48.86112976 82.13018799 C47.50491833 83.46876681 46.14384157 84.80241101 44.7824707 86.13574219 C42.65411336 88.32665983 40.64447372 90.5327063 38.65039062 92.84082031 C34.98792355 97.06567007 31.11729717 101.04420307 27.16796875 105 C26.45014725 105.7211499 25.73232574 106.4422998 24.99275208 107.18530273 C23.49069473 108.69238218 21.98731744 110.19814717 20.48266602 111.70263672 C18.17110539 114.01641031 15.86769116 116.33810131 13.56445312 118.66015625 C12.09944695 120.12809197 10.6339693 121.59555735 9.16796875 123.0625 C8.47841599 123.75923828 7.78886322 124.45597656 7.07841492 125.17382812 C6.44047501 125.80869141 5.8025351 126.44355469 5.14526367 127.09765625 C4.30423347 127.94082397 4.30423347 127.94082397 3.44621277 128.80102539 C2 130 2 130 0 130 C0 87.1 0 44.2 0 0 Z " fill="#0078DE" transform="translate(236,404)"/>
<path d="M0 0 C0.33 0 0.66 0 1 0 C1.33 126.72 1.66 253.44 2 384 C3.32 383.34 4.64 382.68 6 382 C6.99 382.33 7.98 382.66 9 383 C7.68 383.66 6.36 384.32 5 385 C5 385.66 5 386.32 5 387 C3.33388095 387.042721 1.66617115 387.04063832 0 387 C-1.82253358 385.17746642 -1.12550104 382.31510461 -1.12584114 379.8670578 C-1.12729458 379.21617968 -1.12874802 378.56530157 -1.13024551 377.89469987 C-1.13393094 375.68657239 -1.13040741 373.47851286 -1.12698364 371.27038574 C-1.12813446 369.68218687 -1.12972171 368.09398827 -1.13171089 366.50579023 C-1.13590964 362.12036712 -1.13381107 357.7349656 -1.13072467 353.34954238 C-1.128473 348.62829548 -1.13194901 343.90705243 -1.13470459 339.18580627 C-1.13916379 329.92852274 -1.13818516 320.67124729 -1.13529195 311.41396344 C-1.1330385 303.89397116 -1.13272514 296.37398116 -1.13381577 288.85398865 C-1.133969 287.78589878 -1.13412223 286.71780892 -1.13428011 285.61735269 C-1.13459982 283.44791496 -1.13492403 281.27847722 -1.1352527 279.10903949 C-1.13810793 258.74042593 -1.1348198 238.37181687 -1.12945233 218.00320405 C-1.12498426 200.50555175 -1.12576018 183.00790608 -1.13037109 165.51025391 C-1.1357161 145.21720346 -1.13783323 124.92415695 -1.13475883 104.6311059 C-1.13444026 102.46940772 -1.13412589 100.30770954 -1.13381577 98.14601135 C-1.13358435 96.55039122 -1.13358435 96.55039122 -1.13334826 94.92253634 C-1.13248289 87.4068883 -1.13394643 79.89124275 -1.13629532 72.37559509 C-1.1390927 63.22326639 -1.13835637 54.07094627 -1.13301457 44.91861856 C-1.13037672 40.24416784 -1.12937391 35.56973146 -1.13266373 30.89528084 C-1.13562498 26.62324867 -1.13403677 22.35124425 -1.12868617 18.07921463 C-1.12756125 16.52674737 -1.12815482 14.9742778 -1.13056196 13.421812 C-1.13356516 11.32548786 -1.13052232 9.22926108 -1.12584114 7.1329422 C-1.12559761 5.38001696 -1.12559761 5.38001696 -1.12534916 3.5916791 C-1 1 -1 1 0 0 Z " fill="#0C0E20" transform="translate(507,322)"/>
<path d="M0 0 C4.18710675 3.51137771 8.1339676 7.1339676 12 11 C13.175625 11.8971875 13.175625 11.8971875 14.375 12.8125 C20.47729161 17.89774301 25.17454594 24.40473629 29.78198242 30.82676697 C50.37232494 59.12763607 72.32771673 86.15293534 95.55739313 112.31232363 C96.99642752 113.9334754 98.43273764 115.55701268 99.86900282 117.18061781 C149.20017049 172.83554731 197.08708184 211.06737808 273.46833146 215.81045097 C302.28990168 217.47164726 330.98594223 217.08926458 359.8125 215.8125 C361.46699954 215.74122691 363.12150242 215.67003127 364.77600861 215.59891272 C407.35950903 213.74504415 449.69596016 210.2325613 492 205 C492 205.33 492 205.66 492 206 C449.21091995 212.20747154 406.39542568 216.33767142 363.22354889 218.61891615 C360.75790691 218.74958098 358.29247429 218.88380675 355.82702637 219.0180769 C274.06815561 223.39857982 204.51503473 218.78842846 141.31336319 162.32176709 C121.61864777 144.60589059 103.34190675 125.66452545 85.65072656 105.96297288 C83.99501344 104.1194478 82.33641884 102.27854899 80.67739677 100.43800163 C54.44575513 71.30436478 29.41240688 41.29060132 5.80664062 9.98513794 C5.20937896 9.19720616 4.6121173 8.40927438 3.99675679 7.59746587 C3.46371206 6.88287509 2.93066733 6.16828431 2.38146973 5.43203926 C1.91788307 4.81309512 1.45429642 4.19415098 0.97666168 3.55645096 C0 2 0 2 0 0 Z " fill="#100105" transform="translate(242,592)"/>
<path d="M0 0 C4.57438452 3.80071449 8.84341545 7.74508244 12.92552185 12.06770325 C13.75583069 12.93800605 13.75583069 12.93800605 14.60291344 13.82589072 C15.80531173 15.08653808 17.00630861 16.3485233 18.20604134 17.61170769 C21.55110424 21.13256299 24.90823321 24.64188253 28.26475525 28.15180969 C28.97874414 28.89878321 29.69273304 29.64575673 30.42835796 30.41536582 C40.43563871 40.87400949 50.54665005 51.23228472 60.6547842 61.59332752 C68.86595824 70.01592507 77.03732401 78.47129388 85.12524414 87.01245117 C92.20470417 94.48834585 99.35294971 101.89027065 106.58750588 109.21628684 C110.40321573 113.08515592 114.17835366 116.97929081 117.87212944 120.96503639 C137.53030602 142.21104268 137.53030602 142.21104268 164.64907169 149.43170452 C172.48574908 149.50962025 180.22930914 148.98458867 188 148 C188 148.33 188 148.66 188 149 C150.20179234 152.76350348 150.20179234 152.76350348 140.19915771 145.72817993 C134.69938135 141.21801138 130.22594812 135.73631844 126.14770508 129.92773438 C120.09016692 121.67014683 112.71055483 114.58258347 105.46508789 107.38330078 C104.31112852 106.23290393 103.15740791 105.08226754 102.00390625 103.93141174 C99.53464764 101.46866605 97.06388807 99.00743998 94.59196663 96.5473671 C90.68583114 92.65961033 86.78412011 88.76743345 82.88316345 84.8744812 C71.79524824 73.81065851 60.70134234 62.75285395 49.60327148 51.69921875 C43.46257591 45.58303223 37.32544889 39.46328756 31.19216341 33.33967006 C27.3116872 29.46574762 23.42674174 25.59638057 19.53846467 21.73028874 C17.12945251 19.33296449 14.72459146 16.93151037 12.32091522 14.5288372 C11.20193932 13.41201732 10.08123128 12.29692997 8.95871544 11.18366814 C7.43274968 9.66980331 5.91298132 8.14998284 4.39466858 6.62844849 C3.54096208 5.77788439 2.68725557 4.92732029 1.80767918 4.05098152 C0 2 0 2 0 0 Z " fill="#100107" transform="translate(318,603)"/>
<path d="M0 0 C0.99 0.495 0.99 0.495 2 1 C-5.0387964 7.04494641 -12.14834426 12.95794847 -19.47387695 18.65258789 C-24.32302283 22.43557634 -29.07473098 26.32874784 -33.8125 30.25 C-43.30783187 38.09516711 -43.30783187 38.09516711 -47.4375 41.375 C-48.42556641 42.16003906 -48.42556641 42.16003906 -49.43359375 42.9609375 C-51 44 -51 44 -53 44 C-53 44.66 -53 45.32 -53 46 C-55.04712784 47.77792461 -57.09242561 49.42930397 -59.25 51.0625 C-59.83652344 51.52205078 -60.42304687 51.98160156 -61.02734375 52.45507812 C-63.98833837 54.72073806 -66.35227071 56.2663923 -70 57 C-66.10276532 52.94567909 -61.94495243 49.39376901 -57.5625 45.875 C-56.50470337 45.02023071 -56.50470337 45.02023071 -55.42553711 44.14819336 C-50.43918613 40.12878375 -45.40582329 36.17206314 -40.35717773 32.23144531 C-34.26559403 27.45823417 -28.31226346 22.52002386 -22.34765625 17.58984375 C-17.93188584 13.940207 -13.50234437 10.30780502 -9.0625 6.6875 C-8.0418042 5.8514624 -8.0418042 5.8514624 -7.00048828 4.99853516 C-2.23214195 1.11607097 -2.23214195 1.11607097 0 0 Z " fill="#0B132E" transform="translate(718,578)"/>
<path d="M0 0 C2.98618877 1.31232252 4.75165813 2.58585315 6.75683594 5.14868164 C7.26954041 5.7858461 7.78224487 6.42301056 8.31048584 7.07948303 C8.86286926 7.76610519 9.41525269 8.45272736 9.984375 9.16015625 C25.25248304 27.96028072 25.25248304 27.96028072 47.015625 36.33984375 C56.69156628 36.98179562 66.4015694 36.26201587 76 35 C76 35.33 76 35.66 76 36 C38.20179234 39.76350348 38.20179234 39.76350348 28.19915771 32.72817993 C22.6146583 28.14853306 18.14812067 22.56357083 13.9519043 16.70898438 C11.65353556 13.5191533 9.1297174 10.61226661 6.50830078 7.6875 C4.26880392 5.18193148 2.13840586 2.5920071 0 0 Z " fill="#0E0E20" transform="translate(430,716)"/>
<path d="M0 0 C0 0.99 0 1.98 0 3 C-2.07728582 5.02041488 -4.14167921 6.85456167 -6.375 8.6875 C-7.00970215 9.21988281 -7.6444043 9.75226562 -8.29833984 10.30078125 C-12.77393487 14.03928585 -17.31167458 17.69986964 -21.9140625 21.28125 C-24.06570684 22.91111891 -24.06570684 22.91111891 -25.53173828 25.08300781 C-29.32200776 28.02674628 -32.91302117 27.49786997 -37.578125 27.390625 C-38.5046991 27.38496521 -39.43127319 27.37930542 -40.38592529 27.37347412 C-43.34114562 27.35110921 -46.29514705 27.30091262 -49.25 27.25 C-51.2551908 27.22993515 -53.26040064 27.21168435 -55.265625 27.1953125 C-60.17755194 27.151244 -65.08856942 27.08221555 -70 27 C-70 26.67 -70 26.34 -70 26 C-56.47 26 -42.94 26 -29 26 C-28.34 24.68 -27.68 23.36 -27 22 C-25.37109375 20.38769531 -25.37109375 20.38769531 -23.4375 18.828125 C-22.727146 18.24949707 -22.01679199 17.67086914 -21.28491211 17.07470703 C-20.15388062 16.17147705 -20.15388062 16.17147705 -19 15.25 C-18.23631104 14.63108887 -17.47262207 14.01217773 -16.68579102 13.37451172 C-14.46289844 11.57577782 -12.23258148 9.7866852 -10 8 C-8.88389097 7.1018403 -7.76797595 6.20343941 -6.65234375 5.3046875 C-4.44067061 3.52898446 -2.22433642 1.75979442 0 0 Z " fill="#0A1837" transform="translate(535,726)"/>
<path d="M0 0 C0.66 0.33 1.32 0.66 2 1 C1.30962646 1.68513672 0.61925293 2.37027344 -0.09204102 3.07617188 C-2.68712127 5.65295983 -5.27873292 8.23321362 -7.86938477 10.81445312 C-8.9846729 11.92475584 -10.10086211 13.03415429 -11.21801758 14.14257812 C-19.68502013 22.54361579 -19.68502013 22.54361579 -27.61914062 31.4453125 C-29.52628563 33.59253657 -31.68290984 35.31484352 -34 37 C-33.41655553 33.57458417 -32.31158946 31.94301619 -29.85717773 29.51660156 C-29.19656845 28.85621887 -28.53595917 28.19583618 -27.85533142 27.51544189 C-27.13865799 26.81425232 -26.42198456 26.11306274 -25.68359375 25.390625 C-24.58701195 24.30041046 -24.58701195 24.30041046 -23.46827698 23.18817139 C-21.13162843 20.86831599 -18.78476516 18.559108 -16.4375 16.25 C-14.85152964 14.67907557 -13.26623457 13.10746906 -11.68164062 11.53515625 C-7.79556178 7.68215516 -3.90104457 3.83784481 0 0 Z " fill="#0D091A" transform="translate(277,494)"/>
<path d="M0 0 C0.33 0.99 0.66 1.98 1 3 C-6.92 10.92 -14.84 18.84 -23 27 C-23.99 26.67 -24.98 26.34 -26 26 C-23.19469153 23.1453424 -20.38292304 20.29722769 -17.56494141 17.45507812 C-16.60675044 16.48681462 -15.65036018 15.51676574 -14.69580078 14.54492188 C-13.3253618 13.1502903 -11.94793633 11.76253479 -10.5703125 10.375 C-9.74289551 9.53710938 -8.91547852 8.69921875 -8.06298828 7.8359375 C-6 6 -6 6 -4 6 C-3.566875 5.071875 -3.566875 5.071875 -3.125 4.125 C-2 2 -2 2 0 0 Z " fill="#0B1938" transform="translate(416,401)"/>
<path d="M0 0 C0.66 0.33 1.32 0.66 2 1 C0.04653795 2.67268922 -1.91229814 4.33821581 -3.875 6 C-4.43058594 6.47695313 -4.98617187 6.95390625 -5.55859375 7.4453125 C-9.7734375 11 -9.7734375 11 -12 11 C-12 11.66 -12 12.32 -12 13 C-13.90309664 14.66115258 -15.79341169 16.18075244 -17.8125 17.6875 C-18.35970703 18.11611328 -18.90691406 18.54472656 -19.47070312 18.98632812 C-21.08203125 20.19921875 -21.08203125 20.19921875 -24 22 C-24.99 21.67 -25.98 21.34 -27 21 C-25.6132987 18.22659739 -23.65583055 17.59127278 -21 16 C-19.05919208 14.42512654 -17.1439615 12.81841129 -15.25 11.1875 C-10.40116996 7.06131762 -5.40929851 3.3603218 0 0 Z " fill="#0A1736" transform="translate(664,583)"/>
<path d="M0 0 C0.66 0.33 1.32 0.66 2 1 C0.3125 3.9375 0.3125 3.9375 -2 7 C-4.625 7.625 -4.625 7.625 -7 8 C-7.68247792 9.32530982 -8.34686403 10.65998671 -9 12 C-12.42894242 15.61032225 -16.14184154 18.65051154 -21 20 C-21.99 20 -22.98 20 -24 20 C-16.0651284 13.25094387 -8.08853354 6.56484185 0 0 Z " fill="#016CCC" transform="translate(584,688)"/>
<path d="M0 0 C0 0.66 0 1.32 0 2 C-1.625 3.48828125 -1.625 3.48828125 -4 5.3125 C-4.90492188 6.01761719 -5.80984375 6.72273437 -6.7421875 7.44921875 C-7.25491211 7.84802246 -7.76763672 8.24682617 -8.29589844 8.65771484 C-12.28218897 11.79763251 -16.18927681 15.03796369 -20.11328125 18.25512695 C-24.65430115 21.95943448 -29.28667295 25.51773086 -34 29 C-34.66 28.67 -35.32 28.34 -36 28 C-30.68207661 23.16102002 -25.11830544 18.69199892 -19.44384766 14.28466797 C-14.28261518 10.26237055 -9.28976517 6.06593449 -4.328125 1.80078125 C-2 0 -2 0 0 0 Z " fill="#0C1129" transform="translate(586,686)"/>
<path d="M0 0 C0.66 0.33 1.32 0.66 2 1 C-0.61854921 3.17456143 -3.24585884 5.33826171 -5.875 7.5 C-6.62136719 8.12003906 -7.36773438 8.74007812 -8.13671875 9.37890625 C-8.85214844 9.96542969 -9.56757812 10.55195312 -10.3046875 11.15625 C-10.96452637 11.70087891 -11.62436523 12.24550781 -12.30419922 12.80664062 C-14 14 -14 14 -16 14 C-16 14.66 -16 15.32 -16 16 C-17.32 16.33 -18.64 16.66 -20 17 C-15.82955739 9.21427111 -7.86989489 3.7709913 0 0 Z " fill="#0A1839" transform="translate(560,667)"/>
<path d="M0 0 C0.66 0.33 1.32 0.66 2 1 C-4.47251453 8.83514917 -11.77773464 15.86788775 -19 23 C-19.33 22.01 -19.66 21.02 -20 20 C-13.4 13.4 -6.8 6.8 0 0 Z " fill="#0B1028" transform="translate(301,469)"/>
<path d="M0 0 C0.66 0 1.32 0 2 0 C0.5735422 3.2586636 -1.16704162 5.4024854 -3.6953125 7.890625 C-4.76845703 8.95410156 -4.76845703 8.95410156 -5.86328125 10.0390625 C-6.60964844 10.76867187 -7.35601562 11.49828125 -8.125 12.25 C-8.87910156 12.99507812 -9.63320313 13.74015625 -10.41015625 14.5078125 C-12.26900772 16.3431342 -14.13237005 18.1736191 -16 20 C-16.99 19.67 -17.98 19.34 -19 19 C-16.71643754 16.65861457 -14.42186626 14.32833018 -12.125 12 C-11.47402344 11.33226562 -10.82304687 10.66453125 -10.15234375 9.9765625 C-9.52714844 9.34492187 -8.90195312 8.71328125 -8.2578125 8.0625 C-7.6817627 7.47597656 -7.10571289 6.88945313 -6.51220703 6.28515625 C-5 5 -5 5 -3 5 C-2.690625 4.360625 -2.38125 3.72125 -2.0625 3.0625 C-1 1 -1 1 0 0 Z " fill="#0B1633" transform="translate(306,508)"/>
<path d="M0 0 C0.33 0.66 0.66 1.32 1 2 C0.46632813 2.4125 -0.06734375 2.825 -0.6171875 3.25 C-6.45745468 7.77671227 -12.24064682 12.37087479 -18 17 C-18.66 16.67 -19.32 16.34 -20 16 C-16.9271793 11.80224003 -13.55188765 8.84157587 -9.4375 5.75 C-8.86064453 5.30398438 -8.28378906 4.85796875 -7.68945312 4.3984375 C-5.14104991 2.45847657 -3.06001539 1.02000513 0 0 Z " fill="#0A1738" transform="translate(719,539)"/>
<path d="M0 0 C2.0625 0.4375 2.0625 0.4375 4 1 C2.67578125 2.10351562 1.3515625 3.20703125 0.02734375 4.31054688 C-0.51792969 4.76494141 -1.06320312 5.21933594 -1.625 5.6875 C-5.75 9.125 -9.875 12.5625 -14 16 C-14.66 15.67 -15.32 15.34 -16 15 C-11.75130566 9.33507422 -6.57071427 5.32246163 -1 1 C-0.67 0.67 -0.34 0.34 0 0 Z " fill="#0A1837" transform="translate(693,558)"/>
<path d="M0 0 C-1.32120828 2.93230193 -2.74638197 4.98664899 -5.0390625 7.234375 C-5.90917969 8.09482422 -5.90917969 8.09482422 -6.796875 8.97265625 C-7.40015625 9.55917969 -8.0034375 10.14570313 -8.625 10.75 C-9.23601562 11.35199219 -9.84703125 11.95398438 -10.4765625 12.57421875 C-11.97988624 14.05405305 -13.48934856 15.52764676 -15 17 C-15.99 16.67 -16.98 16.34 -18 16 C-16.71451591 14.66070495 -15.42141845 13.32871357 -14.125 12 C-13.40570313 11.2575 -12.68640625 10.515 -11.9453125 9.75 C-10 8 -10 8 -8 8 C-7.7525 7.4225 -7.505 6.845 -7.25 6.25 C-5.58207452 3.24773413 -3.67725381 0 0 0 Z " fill="#0B1735" transform="translate(336,481)"/>
<path d="M0 0 C0.66 0 1.32 0 2 0 C0.67879172 2.93230193 -0.74638197 4.98664899 -3.0390625 7.234375 C-3.90917969 8.09482422 -3.90917969 8.09482422 -4.796875 8.97265625 C-5.40015625 9.55917969 -6.0034375 10.14570313 -6.625 10.75 C-7.23601562 11.35199219 -7.84703125 11.95398438 -8.4765625 12.57421875 C-9.97988624 14.05405305 -11.48934856 15.52764676 -13 17 C-13.99 16.67 -14.98 16.34 -16 16 C-13.71643754 13.65861457 -11.42186626 11.32833018 -9.125 9 C-8.47402344 8.33226562 -7.82304687 7.66453125 -7.15234375 6.9765625 C-6.52714844 6.34492188 -5.90195312 5.71328125 -5.2578125 5.0625 C-4.6817627 4.47597656 -4.10571289 3.88945312 -3.51220703 3.28515625 C-2 2 -2 2 0 2 C0 1.34 0 0.68 0 0 Z " fill="#0A1736" transform="translate(368,448)"/>
<path d="M0 0 C0.66 0.33 1.32 0.66 2 1 C-2.27293882 6.23435005 -6.81580806 10.67106815 -12 15 C-12.66 14.67 -13.32 14.34 -14 14 C-13.1875 12.0625 -13.1875 12.0625 -12 10 C-11.01 9.67 -10.02 9.34 -9 9 C-9 8.34 -9 7.68 -9 7 C-7.28515625 5.52734375 -7.28515625 5.52734375 -5.0625 3.9375 C-2.41985962 2.10094469 -2.41985962 2.10094469 0 0 Z " fill="#006DCE" transform="translate(674,615)"/>
<path d="M0 0 C0.33 0.99 0.66 1.98 1 3 C-4.9194965 7.77926562 -10.87647362 12.48432691 -17 17 C-17.66 16.67 -18.32 16.34 -19 16 C-16.77172107 14.0822931 -14.54241095 12.16580761 -12.3125 10.25 C-11.68666016 9.71117187 -11.06082031 9.17234375 -10.41601562 8.6171875 C-6.9934917 5.67847585 -3.5444177 2.79216079 0 0 Z " fill="#0B132D" transform="translate(628,650)"/>
<path d="M0 0 C-1.3584202 3.04332765 -2.88463024 5.12309151 -5.2578125 7.453125 C-5.88300781 8.071875 -6.50820312 8.690625 -7.15234375 9.328125 C-7.80332031 9.96234375 -8.45429688 10.5965625 -9.125 11.25 C-9.78371094 11.8996875 -10.44242188 12.549375 -11.12109375 13.21875 C-12.74296643 14.81711727 -14.3693281 16.41061897 -16 18 C-16.66 17.67 -17.32 17.34 -18 17 C-17.236875 16.2575 -16.47375 15.515 -15.6875 14.75 C-13.04428801 12.176446 -13.04428801 12.176446 -11.3125 9.6875 C-10.879375 9.130625 -10.44625 8.57375 -10 8 C-9.34 8 -8.68 8 -8 8 C-7.67 7.01 -7.34 6.02 -7 5 C-2.46511628 0 -2.46511628 0 0 0 Z " fill="#0C132A" transform="translate(251,563)"/>
<path d="M0 0 C0.66 0.33 1.32 0.66 2 1 C-7.04100228 12.11161731 -7.04100228 12.11161731 -14 13 C-10.92617601 8.5897308 -7.17371824 5.6512445 -2.92578125 2.453125 C-1.09616822 1.14234674 -1.09616822 1.14234674 0 0 Z " fill="#0168C6" transform="translate(654,631)"/>
<path d="M0 0 C0.66 0.33 1.32 0.66 2 1 C-2 5.66666667 -6 10.33333333 -10 15 C-10.99 14.34 -11.98 13.68 -13 13 C-8.71 8.71 -4.42 4.42 0 0 Z " fill="#006FD2" transform="translate(335,483)"/>
<path d="M0 0 C0.66 0.33 1.32 0.66 2 1 C0.5039904 4.80802445 -1.66063151 6.69424557 -5 9 C-7.0625 9.625 -7.0625 9.625 -9 10 C-10.3479743 10.63654342 -11.68596724 11.29605388 -13 12 C-9.48451346 6.95604105 -4.88263123 3.62024153 0 0 Z " fill="#0169C8" transform="translate(616,662)"/>
<path d="M0 0 C0.66 0.33 1.32 0.66 2 1 C-7.0625 12.13392857 -7.0625 12.13392857 -13 14 C-8.88380164 9.08064098 -4.59589638 4.47352044 0 0 Z " fill="#006FD2" transform="translate(369,450)"/>
<path d="M0 0 C4.18374334 3.5085571 8.18564713 7.08526942 12 11 C12.928125 11.928125 13.85625 12.85625 14.8125 13.8125 C15.8953125 14.8953125 15.8953125 14.8953125 17 16 C14 16 14 16 12.37426758 14.74658203 C11.80345459 14.17278809 11.2326416 13.59899414 10.64453125 13.0078125 C10.02255859 12.38519531 9.40058594 11.76257813 8.75976562 11.12109375 C8.11716797 10.46238281 7.47457031 9.80367187 6.8125 9.125 C6.15830078 8.47402344 5.50410156 7.82304688 4.83007812 7.15234375 C0 2.26686327 0 2.26686327 0 0 Z " fill="#0F0917" transform="translate(242,592)"/>
<path d="M0 0 C0 0.99 0 1.98 0 3 C-1.96185416 4.71140469 -3.96302383 6.37873325 -6 8 C-6.33 8.66 -6.66 9.32 -7 10 C-9.5625 10.625 -9.5625 10.625 -12 11 C-11.06409496 9.8944811 -10.12620142 8.79064547 -9.1875 7.6875 C-8.66542969 7.07261719 -8.14335937 6.45773437 -7.60546875 5.82421875 C-3.50909091 1.16969697 -3.50909091 1.16969697 0 0 Z " fill="#0071D5" transform="translate(246,571)"/>
<path d="M0 0 C3.45201639 1.47721422 5.64961936 3.43794001 8.25 6.125 C8.95640625 6.84945312 9.6628125 7.57390625 10.390625 8.3203125 C11.18726563 9.15175781 11.18726563 9.15175781 12 10 C11.34 10.66 10.68 11.32 10 12 C8.32737283 10.38113585 6.66204463 8.7547271 5 7.125 C4.071875 6.22007812 3.14375 5.31515625 2.1875 4.3828125 C0 2 0 2 0 0 Z " fill="#0274D4" transform="translate(430,718)"/>
<path d="M0 0 C0.60972656 0.19722656 1.21945312 0.39445313 1.84765625 0.59765625 C0.08434906 2.10649635 -1.68824772 3.60448605 -3.46484375 5.09765625 C-4.45097656 5.93296875 -5.43710937 6.76828125 -6.453125 7.62890625 C-9.15234375 9.59765625 -9.15234375 9.59765625 -12.15234375 9.59765625 C-3.9330181 -0.73521028 -3.9330181 -0.73521028 0 0 Z " fill="#0A1633" transform="translate(576.15234375,654.40234375)"/>
<path d="M0 0 C0.5775 0.2475 1.155 0.495 1.75 0.75 C-1.29513625 5.39783954 -5.3519695 7.39168902 -10.25 9.75 C-3.77830189 -0.41981132 -3.77830189 -0.41981132 0 0 Z " fill="#0B1837" transform="translate(337.25,587.25)"/>
<path d="M0 0 C0 3 0 3 -2.1875 5.48046875 C-3.115625 6.37378906 -4.04375 7.26710938 -5 8.1875 C-5.928125 9.08855469 -6.85625 9.98960937 -7.8125 10.91796875 C-8.534375 11.60503906 -9.25625 12.29210937 -10 13 C-10.66 12.34 -11.32 11.68 -12 11 C-8.17426612 7.07503959 -4.38002676 3.31820209 0 0 Z " fill="#0A1734" transform="translate(272,542)"/>
<path d="M0 0 C0.66 0.33 1.32 0.66 2 1 C-1.02299093 4.88670262 -3.45945591 7.84921596 -8 10 C-8.99 10 -9.98 10 -11 10 C-9.54474941 8.51780033 -8.085701 7.03932861 -6.625 5.5625 C-5.81289063 4.73878906 -5.00078125 3.91507813 -4.1640625 3.06640625 C-2 1 -2 1 0 0 Z " fill="#006ED0" transform="translate(275,542)"/>
<path d="M0 0 C0.66 0.99 1.32 1.98 2 3 C0.54634731 4.17249353 -0.91307419 5.33783816 -2.375 6.5 C-3.18710937 7.1496875 -3.99921875 7.799375 -4.8359375 8.46875 C-7 10 -7 10 -9 10 C-8.1875 8.0625 -8.1875 8.0625 -7 6 C-6.01 5.67 -5.02 5.34 -4 5 C-4 4.34 -4 3.68 -4 3 C-2 1.375 -2 1.375 0 0 Z " fill="#091A3B" transform="translate(591,640)"/>
<path d="M0 0 C0.66 0.66 1.32 1.32 2 2 C-1.3 5.3 -4.6 8.6 -8 12 C-8.33 11.01 -8.66 10.02 -9 9 C-6.03 6.03 -3.06 3.06 0 0 Z " fill="#0B112B" transform="translate(252,519)"/>
<path d="M0 0 C0.66 0.33 1.32 0.66 2 1 C1.09674384 2.32176485 0.17682097 3.63215066 -0.75 4.9375 C-1.26046875 5.66839844 -1.7709375 6.39929688 -2.296875 7.15234375 C-4.19177915 9.20805399 -5.27425729 9.62669176 -8 10 C-8 7 -8 7 -6.25 5.17578125 C-5.5075 4.56089844 -4.765 3.94601562 -4 3.3125 C-3.2575 2.68988281 -2.515 2.06726563 -1.75 1.42578125 C-1.1725 0.95527344 -0.595 0.48476563 0 0 Z " fill="#016DCF" transform="translate(547,718)"/>
<path d="M0 0 C0 3 0 3 -2.1875 5.5 C-4.71652879 7.74802559 -6.96219189 9.52214741 -10 11 C-10.66 10.67 -11.32 10.34 -12 10 C-8.04 6.7 -4.08 3.4 0 0 Z " fill="#0165C2" transform="translate(599,676)"/>
<path d="M0 0 C0.66 0 1.32 0 2 0 C0.61811547 3.21043882 -0.92421903 5.04936365 -3.625 7.25 C-4.57246094 8.03117187 -4.57246094 8.03117187 -5.5390625 8.828125 C-6.02117187 9.21484375 -6.50328125 9.6015625 -7 10 C-7 7 -7 7 -4.625 4.4375 C-3.75875 3.633125 -2.8925 2.82875 -2 2 C-1.34 1.34 -0.68 0.68 0 0 Z " fill="#016ECE" transform="translate(275,493)"/>
<path d="M0 0 C3.21043882 1.38188453 5.04936365 2.92421903 7.25 5.625 C8.03117188 6.57246094 8.03117188 6.57246094 8.828125 7.5390625 C9.40820312 8.26222656 9.40820312 8.26222656 10 9 C7 9 7 9 5.17578125 7.5390625 C4.56089844 6.90742187 3.94601563 6.27578125 3.3125 5.625 C2.68988281 4.99851562 2.06726563 4.37203125 1.42578125 3.7265625 C0 2 0 2 0 0 Z " fill="#0B152E" transform="translate(233,583)"/>
<path d="M0 0 C0.66 0 1.32 0 2 0 C0.59155282 3.21524305 -1.10344786 5.32183868 -3.625 7.75 C-4.57246094 8.67039062 -4.57246094 8.67039062 -5.5390625 9.609375 C-6.02117187 10.06828125 -6.50328125 10.5271875 -7 11 C-7.33 10.01 -7.66 9.02 -8 8 C-7.34 8 -6.68 8 -6 8 C-5.7525 7.38125 -5.505 6.7625 -5.25 6.125 C-3.79371361 3.64931313 -2.62187494 3.04874998 0 2 C0 1.34 0 0.68 0 0 Z " fill="#0B152F" transform="translate(427,390)"/>
<path d="M0 0 C0.33 0.66 0.66 1.32 1 2 C-1.66666667 4.66666667 -4.33333333 7.33333333 -7 10 C-7.66 9.67 -8.32 9.34 -9 9 C-6 6 -3 3 0 0 Z " fill="#091636" transform="translate(733,526)"/>
<path d="M0 0 C0.66 0.33 1.32 0.66 2 1 C-0.31 3.64 -2.62 6.28 -5 9 C-5.99 8.34 -6.98 7.68 -8 7 C-5.36 4.69 -2.72 2.38 0 0 Z " fill="#006CCD" transform="translate(627,653)"/>
<path d="M0 0 C-1.16290805 3.48872415 -2.13967609 4.09976864 -5.0625 6.1875 C-5.79597656 6.71730469 -6.52945313 7.24710938 -7.28515625 7.79296875 C-7.85105469 8.19128906 -8.41695312 8.58960938 -9 9 C-9.66 8.67 -10.32 8.34 -11 8 C-9.54712339 6.66072279 -8.08752741 5.32873153 -6.625 4 C-5.81289063 3.2575 -5.00078125 2.515 -4.1640625 1.75 C-2 0 -2 0 0 0 Z " fill="#0B112A" transform="translate(598,676)"/>
<path d="M0 0 C0.33 0.66 0.66 1.32 1 2 C-0.125 4.5625 -0.125 4.5625 -2 7 C-4.6875 7.8125 -4.6875 7.8125 -7 8 C-6.02133662 6.85373678 -5.04205413 5.70800212 -4.0625 4.5625 C-3.51722656 3.92441406 -2.97195313 3.28632813 -2.41015625 2.62890625 C-1.63204305 1.73008851 -0.84063472 0.84063472 0 0 Z " fill="#0168C6" transform="translate(428,392)"/>
<path d="M0 0 C3.7952131 1.49097658 5.61042731 3.75700849 8 7 C5 7 5 7 2.3125 4.625 C0 2 0 2 0 0 Z " fill="#0071D0" transform="translate(244,592)"/>
<path d="M0 0 C0.66 0.33 1.32 0.66 2 1 C0.15794162 3.54379491 -1.72478134 5.83312509 -4 8 C-4.66 7.34 -5.32 6.68 -6 6 C-4.02 4.02 -2.04 2.04 0 0 Z " fill="#08224C" transform="translate(343,580)"/>
<path d="M0 0 C-2.97 2.64 -5.94 5.28 -9 8 C-9.66 7.67 -10.32 7.34 -11 7 C-3.96875 -1.984375 -3.96875 -1.984375 0 0 Z " fill="#0B122B" transform="translate(352,577)"/>
<path d="M0 0 C0.33 0.99 0.66 1.98 1 3 C-1.31 4.98 -3.62 6.96 -6 9 C-4.86634892 4.46539569 -3.35806626 3.09975347 0 0 Z " fill="#0B1634" transform="translate(287,483)"/>
<path d="M0 0 C0 3 0 3 -1 6 C-4.5625 7.1875 -4.5625 7.1875 -8 8 C-5.33333333 5.33333333 -2.66666667 2.66666667 0 0 Z " fill="#08254F" transform="translate(328,593)"/>
<path d="M0 0 C0.66 0.33 1.32 0.66 2 1 C-1.625 5.875 -1.625 5.875 -5 7 C-4.60196439 4.11424181 -4.20990931 3.17810487 -1.9375 1.25 C-1.298125 0.8375 -0.65875 0.425 0 0 Z " fill="#092249" transform="translate(597,635)"/>
<path d="M0 0 C0.66 0.33 1.32 0.66 2 1 C0.02 2.98 -1.96 4.96 -4 7 C-4.99 6.67 -5.98 6.34 -7 6 C-4.69 4.02 -2.38 2.04 0 0 Z " fill="#0C1026" transform="translate(606,668)"/>
<path d="M0 0 C0.66 0.33 1.32 0.66 2 1 C-1.32307692 5.8 -1.32307692 5.8 -4.75 6.8125 C-5.4925 6.874375 -6.235 6.93625 -7 7 C-4.66666667 4.66666667 -2.33333333 2.33333333 0 0 Z " fill="#08224C" transform="translate(565,661)"/>
</svg>
